<svg viewBox="0 0 126 30" fill="none" xmlns="http://www.w3.org/2000/svg" class="h-4"><path d="M30.04 19.923l-3.361-1.948a.979.979 0 01-.489-.847v-3.897a2.28 2.28 0 00-1.132-1.966l-3.361-1.949a.983.983 0 01-.486-.848V4.57a2.286 2.286 0 00-1.132-1.97L15.585-.001l-4.494 2.6A2.274 2.274 0 009.964 4.57v3.898a.987.987 0 01-.487.848l-3.365 1.949a2.272 2.272 0 00-1.13 1.966v3.897a.981.981 0 01-.486.847l-3.364 1.948A2.278 2.278 0 000 21.892v5.202l4.494 2.6a2.253 2.253 0 002.261 0l3.362-1.948a.975.975 0 01.974 0l3.362 1.949a2.259 2.259 0 002.264 0l3.362-1.95a.975.975 0 01.974 0l3.362 1.95a2.253 2.253 0 002.262 0l4.493-2.601v-5.202a2.287 2.287 0 00-1.13-1.969zM19.927 4.57v3.898a2.286 2.286 0 001.132 1.966l3.362 1.949a.98.98 0 01.488.848v3.897a2.282 2.282 0 001.13 1.967l3.362 1.949a.98.98 0 01.488.848v3.715l-13.66-7.914V1.866l3.206 1.858a.976.976 0 01.492.846zM1.776 21.044l3.361-1.949A2.274 2.274 0 006.27 17.13V13.23a.984.984 0 01.486-.848l3.362-1.949a2.275 2.275 0 001.132-1.966V4.57a.986.986 0 01.486-.846l3.21-1.858v15.827L1.29 25.607v-3.715a.983.983 0 01.487-.848zm24.257 7.542a.976.976 0 01-.975 0l-3.361-1.948a2.253 2.253 0 00-2.262 0l-3.362 1.948a.975.975 0 01-.974 0l-3.362-1.948a2.257 2.257 0 00-2.264 0l-3.361 1.948a.975.975 0 01-.975 0l-3.204-1.858 13.652-7.923 13.652 7.915-3.204 1.866zM39.41 24.309h3.34v-7.395h7.086v-3.05H42.75V9.567h7.592V6.519H39.41v17.79zM84.027 12.173a4.855 4.855 0 00-2.556-.672c-1.925 0-3.217.694-3.874 2.082h-.253v-1.88h-3.139v12.604h3.188v-6.502c0-1.169.27-2.079.811-2.731.541-.652 1.3-.98 2.278-.98.877 0 1.541.237 1.993.712.452.475.68 1.186.683 2.134v7.37h3.189v-7.524c.019-.95-.19-1.892-.608-2.745a4.55 4.55 0 00-1.712-1.868zM93.369 7.79H90.18v3.913H87.04v2.6h3.14v7.167c0 .864.254 1.555.76 2.073a2.708 2.708 0 002.024.774h3.543v-2.601h-2.429c-.473 0-.71-.254-.71-.762v-6.658h3.444v-2.601H93.37V7.79zM100.389 5.859a2.243 2.243 0 00-1.606.61c-.86.756-.86 2.4 0 3.151.811.814 2.404.814 3.215 0 .86-.758.86-2.4 0-3.15a2.247 2.247 0 00-1.609-.611zM101.986 11.703h-3.19v12.606h3.19V11.703zM54.668 13.483h.253c.483-1.348 1.545-1.83 3.139-1.83h1.323v2.695H57.51c-1.62 0-2.79.862-2.79 2.643v7.318h-3.188V11.705h3.138l-.002 1.778zM122.553 11.703l-3.312 9.103h-.253l-3.316-9.103h-5.628V9.502c0-.508.236-.762.708-.762h2.178V6.139h-3.29c-.845 0-1.521.258-2.027.774-.506.516-.759 1.213-.759 2.089v2.7h-3.188v2.601h3.188v10.014h3.188V14.296h3.189l4.21 10.819-.548 1.32c-.091.22-.281.364-.641.364h-2.79V29.4h3.71c1.303 0 2.192-.648 2.571-1.63L126 11.703h-3.447zM66.262 24.665c3.864 0 6.576-2.707 6.576-6.658 0-3.952-2.672-6.658-6.576-6.658-3.904 0-6.576 2.724-6.576 6.658 0 3.933 2.71 6.658 6.576 6.658zm-3.394-6.66c0-2.561 1.519-3.863 3.388-3.863 1.87 0 3.388 1.302 3.388 3.863 0 2.56-1.519 3.863-3.388 3.863-1.87 0-3.388-1.3-3.388-3.863z" fill="#2D3232"></path></svg>
